<svg xmlns="http://www.w3.org/2000/svg" width="24" height="24" viewBox="0 0 54 54" fill="none"><path d="M44.4274 10.6597L27.0565 1L8.96191 11.0495" stroke="#1083FF" stroke-width="2" stroke-linecap="round" stroke-linejoin="round"></path><path d="M31.1201 47.2109L48.8528 37.3562V17.7306" stroke="#1083FF" stroke-width="2" stroke-linecap="round" stroke-linejoin="round"></path><path d="M5.25879 18.2038V37.3562L22.0729 46.7097" stroke="#1083FF" stroke-width="2" stroke-linecap="round" stroke-linejoin="round"></path><path d="M37.0217 31.2876V19.1781L27.0558 13.1095L17.0898 19.1781V31.2876L27.0558 37.3562L37.0217 31.2876Z" stroke="#1083FF" stroke-width="2" stroke-linecap="round" stroke-linejoin="round"></path><path d="M27.0557 37.3563V25.2468" stroke="#1083FF" stroke-width="2" stroke-linecap="round" stroke-linejoin="round"></path><path d="M17.0898 19.1781L27.0558 25.2468" stroke="#1083FF" stroke-width="2" stroke-linecap="round" stroke-linejoin="round"></path><path d="M37.0217 19.1781L27.0557 25.2468" stroke="#1083FF" stroke-width="2" stroke-linecap="round" stroke-linejoin="round"></path><path d="M5.25919 17.3965C7.61147 17.3965 9.51837 15.4771 9.51837 13.1095C9.51837 10.7418 7.61147 8.82242 5.25919 8.82242C2.9069 8.82242 1 10.7418 1 13.1095C1 15.4771 2.9069 17.3965 5.25919 17.3965Z" stroke="#1083FF" stroke-width="2" stroke-linecap="round" stroke-linejoin="round"></path><path d="M26.8617 52.5C29.214 52.5 31.1209 50.5806 31.1209 48.213C31.1209 45.8453 29.214 43.9259 26.8617 43.9259C24.5094 43.9259 22.6025 45.8453 22.6025 48.213C22.6025 50.5806 24.5094 52.5 26.8617 52.5Z" stroke="#1083FF" stroke-width="2" stroke-linecap="round" stroke-linejoin="round"></path><path d="M48.2406 17.3965C50.5929 17.3965 52.4998 15.4771 52.4998 13.1095C52.4998 10.7418 50.5929 8.82242 48.2406 8.82242C45.8883 8.82242 43.9814 10.7418 43.9814 13.1095C43.9814 15.4771 45.8883 17.3965 48.2406 17.3965Z" stroke="#1083FF" stroke-width="2" stroke-linecap="round" stroke-linejoin="round"></path></svg>